<svg width="53" height="53" viewBox="0 0 53 53" fill="none" xmlns="http://www.w3.org/2000/svg">
<path fill-rule="evenodd" clip-rule="evenodd" d="M22.8562 6.625H30.3093V10.2687H32.2968C33.2906 10.2687 33.9531 10.9312 33.9531 11.925V19.5438L32.9593 20.8688L43.2281 38.7562L44.7187 45.2156C44.8843 46.0437 43.8906 46.7062 43.2281 46.0437L38.425 41.5719L35.1125 35.775C32.4625 37.2656 29.6468 38.0938 26.5 38.0938C23.3531 38.0938 20.5375 37.2656 18.0531 35.775L14.7406 41.5719L9.93747 46.0437C9.27497 46.7062 8.11559 46.0437 8.44684 45.2156L9.93747 38.7562L13.7468 31.9656C11.2625 29.15 9.93747 25.3406 9.93747 21.3656C9.93747 20.7031 9.93747 20.0406 10.1031 19.5438H15.0718C14.9062 20.2063 14.9062 20.7031 14.9062 21.3656C14.9062 23.5187 15.5687 25.5062 16.5625 27.3281L20.3718 20.8688L19.3781 19.5438V11.925C19.3781 10.9312 20.0406 10.2687 21.0343 10.2687H23.0218V6.625H22.8562ZM23.85 25.5062L20.5375 31.4688C22.3593 32.4625 24.3468 33.125 26.5 33.125C28.6531 33.125 30.8062 32.4625 32.4625 31.4688L28.9843 25.5062L27.6593 27.1625C26.9968 27.9906 25.6718 27.9906 25.0093 27.1625L23.85 25.5062ZM23.3531 19.5438C24.0156 20.7031 25.175 21.3656 26.5 21.3656C27.825 21.3656 29.15 20.7031 29.6468 19.5438C29.9781 19.0469 30.1437 18.3844 30.1437 17.7219C30.1437 15.7344 28.4875 14.0781 26.5 14.0781C24.5125 14.0781 22.8562 15.7344 22.8562 17.7219C22.8562 18.3844 23.0218 19.0469 23.3531 19.5438Z" fill="url(#paint0_linear_66_4)"/>
<defs>
<linearGradient id="paint0_linear_66_4" x1="26.5628" y1="6.625" x2="26.5628" y2="46.3142" gradientUnits="userSpaceOnUse">
<stop stop-color="#794BDB"/>
<stop offset="1" stop-color="#42BCE2" stop-opacity="0.98"/>
</linearGradient>
</defs>
</svg>
