<svg width="52" height="52" viewBox="0 0 52 52" fill="none" xmlns="http://www.w3.org/2000/svg">
<path fill-rule="evenodd" clip-rule="evenodd" d="M29.0641 8.29492C27.3719 6.60265 24.6281 6.60265 22.9359 8.29492L21.4808 9.74999L24.8777 13.1468C25.2356 13.051 25.6117 13 26 13C28.3933 13 30.3333 14.9401 30.3333 17.3333C30.3333 17.7215 30.2822 18.0978 30.1866 18.4557L34.6277 22.8967C34.9856 22.8011 35.3617 22.75 35.75 22.75C38.1433 22.75 40.0833 24.69 40.0833 27.0833C40.0833 29.4766 38.1433 31.4167 35.75 31.4167C33.3567 31.4167 31.4167 29.4766 31.4167 27.0833C31.4167 26.6951 31.4678 26.3189 31.5633 25.961L28.1667 22.5641V33.0798C29.4619 33.829 30.3333 35.2293 30.3333 36.8333C30.3333 39.2266 28.3933 41.1667 26 41.1667C23.6067 41.1667 21.6667 39.2266 21.6667 36.8333C21.6667 35.2293 22.5381 33.829 23.8333 33.0798V21.0869C22.5381 20.3377 21.6667 18.9373 21.6667 17.3333C21.6667 16.9451 21.7178 16.5689 21.8133 16.2109L18.4167 12.8141L8.29492 22.9359C6.60265 24.6281 6.60265 27.3719 8.29492 29.0641L22.9359 43.7051C24.6281 45.3973 27.3719 45.3973 29.0641 43.7051L43.7051 29.0641C45.3973 27.3719 45.3973 24.6281 43.7051 22.9359L29.0641 8.29492ZM19.8717 5.23078C23.2563 1.84624 28.7436 1.84625 32.1282 5.2308L46.7692 19.8717C50.1538 23.2563 50.1538 28.7436 46.7692 32.1282L32.1282 46.7692C28.7436 50.1538 23.2563 50.1538 19.8717 46.7692L5.23078 32.1282C1.84624 28.7436 1.84625 23.2563 5.2308 19.8717L19.8717 5.23078Z" fill="url(#paint0_linear_66_8)"/>
<defs>
<linearGradient id="paint0_linear_66_8" x1="26" y1="2.69238" x2="26" y2="49.3076" gradientUnits="userSpaceOnUse">
<stop stop-color="#794BDB"/>
<stop offset="1" stop-color="#42BCE2" stop-opacity="0.97"/>
</linearGradient>
</defs>
</svg>
