<svg width="45" height="45" viewBox="0 0 45 45" fill="none" xmlns="http://www.w3.org/2000/svg">
<circle cx="22.5" cy="22.5" r="22.5" fill="#31313E"/>
<rect x="11.3334" y="10.8889" width="23.3333" height="24.1111" rx="11.6667" fill="white"/>
<path fill-rule="evenodd" clip-rule="evenodd" d="M23 7C30.7322 7 37 13.4259 37 21.3541C37 27.6947 32.9932 33.0735 27.4338 34.9733C26.724 35.1147 26.472 34.6664 26.472 34.2842C26.472 33.811 26.4888 32.2655 26.4888 30.3447C26.4888 29.0063 26.0408 28.1328 25.5382 27.6876C28.656 27.332 31.932 26.1181 31.932 20.6049C31.932 19.0369 31.3888 17.7573 30.49 16.7521C30.6356 16.3895 31.1158 14.9295 30.3528 12.9527C30.3528 12.9527 29.1796 12.5681 26.507 14.4245C25.3884 14.1067 24.19 13.9468 23 13.9412C21.81 13.9468 20.613 14.1067 19.4958 14.4245C16.8204 12.5681 15.6444 12.9527 15.6444 12.9527C14.8842 14.9295 15.3644 16.3895 15.5086 16.7521C14.614 17.7573 14.0666 19.0369 14.0666 20.6049C14.0666 26.1041 17.3356 27.3366 20.445 27.6992C20.0446 28.0576 19.682 28.6898 19.556 29.618C18.758 29.9848 16.7308 30.6197 15.482 28.4259C15.482 28.4259 14.7414 27.0467 13.3358 26.9459C13.3358 26.9459 11.9708 26.9277 13.2406 27.8181C13.2406 27.8181 14.1576 28.2591 14.7946 29.9181C14.7946 29.9181 15.6164 32.4801 19.5112 31.6121C19.5182 32.8119 19.5308 33.9426 19.5308 34.2842C19.5308 34.6636 19.2732 35.1077 18.5746 34.9747C13.011 33.0777 9 27.6961 9 21.3541C9 13.4259 15.2692 7 23 7Z" fill="#31313E"/>
</svg>
