<svg width="45" height="45" viewBox="0 0 45 45" fill="none" xmlns="http://www.w3.org/2000/svg">
<g clip-path="url(#clip0_8_51)">
<rect x="9" y="9" width="28" height="28" fill="#D9D9D9"/>
<path d="M22.5 0C10.0723 0 0 10.0723 0 22.5C0 34.9277 10.0723 45 22.5 45C34.9277 45 45 34.9277 45 22.5C45 10.0723 34.9277 0 22.5 0ZM16.207 31.9131H11.8213V17.877H16.207V31.9131ZM13.8955 16.1191H13.8604C12.2695 16.1191 11.2412 15.0469 11.2412 13.6846C11.2412 12.2959 12.3047 11.25 13.9219 11.25C15.5391 11.25 16.5322 12.2959 16.5674 13.6846C16.5762 15.0381 15.5479 16.1191 13.8955 16.1191ZM33.75 31.9131H28.7754V24.6533C28.7754 22.7549 28.002 21.4541 26.2881 21.4541C24.9785 21.4541 24.249 22.333 23.915 23.1768C23.792 23.4756 23.8096 23.8975 23.8096 24.3281V31.9131H18.8789C18.8789 31.9131 18.9404 19.0459 18.8789 17.877H23.8096V20.083C24.0996 19.1162 25.6729 17.7451 28.1865 17.7451C31.3066 17.7451 33.75 19.7666 33.75 24.1084V31.9131Z" fill="#31313E"/>
</g>
<defs>
<clipPath id="clip0_8_51">
<rect width="45" height="45" fill="white"/>
</clipPath>
</defs>
</svg>
