<svg width="75" height="75" viewBox="0 0 75 75" fill="none" xmlns="http://www.w3.org/2000/svg">
<circle cx="37.5" cy="37.5" r="37.25" stroke="url(#paint0_linear_8_21)" stroke-width="0.5"/>
<path d="M40.992 49.576C39.108 49.576 37.584 48.964 36.42 47.74C35.268 46.516 34.692 44.908 34.692 42.916V42.196H36.672V42.916C36.672 44.32 37.068 45.454 37.86 46.318C38.652 47.17 39.696 47.596 40.992 47.596C42.288 47.596 43.332 47.17 44.124 46.318C44.916 45.454 45.312 44.32 45.312 42.916V40.9C45.312 39.496 44.916 38.368 44.124 37.516C43.332 36.652 42.288 36.22 40.992 36.22H39.12V34.24H40.992C42.288 34.24 43.332 33.814 44.124 32.962C44.916 32.098 45.312 30.964 45.312 29.56V28.084C45.312 26.68 44.916 25.552 44.124 24.7C43.332 23.836 42.288 23.404 40.992 23.404C39.696 23.404 38.652 23.836 37.86 24.7C37.068 25.552 36.672 26.68 36.672 28.084V28.804H34.692V28.084C34.692 26.08 35.268 24.472 36.42 23.26C37.584 22.036 39.108 21.424 40.992 21.424C42.888 21.424 44.412 22.036 45.564 23.26C46.716 24.472 47.292 26.08 47.292 28.084V29.56C47.292 30.94 47.01 32.146 46.446 33.178C45.882 34.198 45.084 34.972 44.052 35.5L44.088 34.924C45.096 35.464 45.882 36.25 46.446 37.282C47.01 38.302 47.292 39.508 47.292 40.9V42.916C47.292 44.908 46.716 46.516 45.564 47.74C44.412 48.964 42.888 49.576 40.992 49.576Z" fill="url(#paint1_linear_8_21)"/>
<defs>
<linearGradient id="paint0_linear_8_21" x1="7.18085" y1="20.3457" x2="37.5" y2="75" gradientUnits="userSpaceOnUse">
<stop stop-color="#794BDB"/>
<stop offset="1" stop-color="#42BCE2" stop-opacity="0.93"/>
</linearGradient>
<linearGradient id="paint1_linear_8_21" x1="33.6711" y1="13" x2="48.3641" y2="13.091" gradientUnits="userSpaceOnUse">
<stop stop-color="#794BDB"/>
<stop offset="1" stop-color="#42BCE2" stop-opacity="0.8"/>
</linearGradient>
</defs>
</svg>
