<svg width="46" height="46" viewBox="0 0 46 46" fill="none" xmlns="http://www.w3.org/2000/svg">
<circle cx="23" cy="23" r="23" fill="#31313E"/>
<g clip-path="url(#clip0_8_55)">
<path d="M33.4524 15.3636V19.7273L22.5 24.0909L11.5476 19.7273V15.3636C11.5476 15.0743 11.663 14.7968 11.8684 14.5922C12.0738 14.3876 12.3524 14.2727 12.6428 14.2727H32.3571C32.6476 14.2727 32.9262 14.3876 33.1316 14.5922C33.337 14.7968 33.4524 15.0743 33.4524 15.3636ZM11.5476 22.0771V30.6363C11.5476 30.9257 11.663 31.2031 11.8684 31.4077C12.0738 31.6123 12.3524 31.7273 12.6428 31.7273H32.3571C32.6476 31.7273 32.9262 31.6123 33.1316 31.4077C33.337 31.2031 33.4524 30.9257 33.4524 30.6363V22.0771L22.5 26.4407L11.5476 22.0771Z" fill="#D9D9D9"/>
</g>
<defs>
<clipPath id="clip0_8_55">
<rect width="23" height="18" fill="white" transform="translate(11 14)"/>
</clipPath>
</defs>
</svg>
