<svg width="75" height="75" viewBox="0 0 75 75" fill="none" xmlns="http://www.w3.org/2000/svg">
<circle cx="37.5" cy="37.5" r="37.25" stroke="url(#paint0_linear_5_112)" stroke-width="0.5"/>
<path d="M29.656 50V48.488C29.656 47.168 29.908 45.962 30.412 44.87C30.928 43.766 31.588 42.74 32.392 41.792C33.208 40.832 34.066 39.926 34.966 39.074C35.866 38.21 36.718 37.358 37.522 36.518C38.338 35.678 38.998 34.826 39.502 33.962C40.018 33.086 40.276 32.168 40.276 31.208V29.084C40.276 27.68 39.88 26.552 39.088 25.7C38.296 24.836 37.252 24.404 35.956 24.404C34.66 24.404 33.616 24.836 32.824 25.7C32.032 26.552 31.636 27.68 31.636 29.084V29.804H29.656V29.084C29.656 27.08 30.232 25.472 31.384 24.26C32.548 23.036 34.072 22.424 35.956 22.424C37.852 22.424 39.376 23.042 40.528 24.278C41.68 25.502 42.256 27.104 42.256 29.084V31.208C42.256 32.24 41.998 33.236 41.482 34.196C40.978 35.144 40.324 36.068 39.52 36.968C38.728 37.856 37.882 38.732 36.982 39.596C36.082 40.46 35.23 41.336 34.426 42.224C33.634 43.1 32.98 43.994 32.464 44.906C31.96 45.818 31.708 46.772 31.708 47.768V48.92L30.808 48.02H42.256V50H29.656Z" fill="url(#paint1_linear_5_112)"/>
<defs>
<linearGradient id="paint0_linear_5_112" x1="7.18085" y1="20.3457" x2="37.5" y2="75" gradientUnits="userSpaceOnUse">
<stop stop-color="#794BDB"/>
<stop offset="1" stop-color="#42BCE2" stop-opacity="0.93"/>
</linearGradient>
<linearGradient id="paint1_linear_5_112" x1="28.6711" y1="14" x2="43.3641" y2="14.091" gradientUnits="userSpaceOnUse">
<stop stop-color="#794BDB"/>
<stop offset="1" stop-color="#42BCE2" stop-opacity="0.8"/>
</linearGradient>
</defs>
</svg>
