<svg width="122" height="88" viewBox="0 0 122 88" fill="none" xmlns="http://www.w3.org/2000/svg">
<path d="M56.5073 0.291256L90.3091 33.5105L88.3804 33.5105L56.5072 1.91308L56.5073 0.291256Z" fill="#DEDEDE"/>
<path d="M23 33.1959L55.6602 0.535688L55.6602 2.14276L24.8941 33.1959L23 33.1959Z" fill="#DEDEDE"/>
<path d="M55.4284 65.9124L23.0001 34.3151L24.9287 34.3151L55.4284 64.5506L55.4284 65.9124Z" fill="#DEDEDE"/>
<path d="M89.7126 34.6296L73.3741 50.6226L56.4999 66.1576L56.4999 64.8184L72.4575 50.0869L88.415 34.6296L89.7126 34.6296Z" fill="#DEDEDE"/>
<path d="M2.492 84.462C2.25867 84.462 2.06733 84.3967 1.918 84.266C1.778 84.1447 1.708 84.0093 1.708 83.86C1.708 83.692 1.73133 83.566 1.778 83.482C1.834 83.3887 1.95067 83.3233 2.128 83.286C2.56667 83.1833 3.01933 83.062 3.486 82.922C3.962 82.7727 4.40533 82.6187 4.816 82.46C5.22667 82.292 5.558 82.1287 5.81 81.97C6.07133 81.8113 6.202 81.6713 6.202 81.55C6.202 81.438 6.09933 81.3307 5.894 81.228C5.68867 81.116 5.42733 80.9947 5.11 80.864C4.79267 80.7333 4.452 80.5887 4.088 80.43C3.724 80.2713 3.38333 80.0893 3.066 79.884C2.74867 79.6787 2.48733 79.4453 2.282 79.184C2.07667 78.9133 1.974 78.6053 1.974 78.26C1.974 77.7187 2.10467 77.2147 2.366 76.748C2.63667 76.272 2.98667 75.8333 3.416 75.432C3.84533 75.0307 4.31667 74.662 4.83 74.326C5.35267 73.9807 5.866 73.6773 6.37 73.416C6.88333 73.1453 7.34067 72.9073 7.742 72.702C7.87267 72.6273 7.99867 72.576 8.12 72.548C8.24133 72.52 8.34867 72.506 8.442 72.506C8.71267 72.506 8.90867 72.5667 9.03 72.688C9.15133 72.8093 9.212 72.9493 9.212 73.108C9.212 73.2387 9.142 73.3927 9.002 73.57C8.862 73.738 8.66133 73.8873 8.4 74.018C8.13867 74.1487 7.826 74.214 7.462 74.214H7.35C7.03267 74.382 6.68733 74.5827 6.314 74.816C5.94067 75.0493 5.572 75.306 5.208 75.586C4.844 75.866 4.508 76.1553 4.2 76.454C3.90133 76.7433 3.65867 77.0233 3.472 77.294C3.29467 77.5647 3.206 77.812 3.206 78.036C3.206 78.3067 3.30867 78.5493 3.514 78.764C3.71933 78.9787 3.98067 79.17 4.298 79.338C4.62467 79.506 4.96533 79.6693 5.32 79.828C5.684 79.9867 6.02467 80.15 6.342 80.318C6.66867 80.4767 6.93467 80.654 7.14 80.85C7.34533 81.0367 7.448 81.256 7.448 81.508C7.448 81.7973 7.34533 82.0727 7.14 82.334C6.944 82.5953 6.68267 82.838 6.356 83.062C6.02933 83.2767 5.67 83.4727 5.278 83.65C4.89533 83.818 4.51733 83.9627 4.144 84.084C3.77067 84.2053 3.43467 84.2987 3.136 84.364C2.84667 84.4293 2.632 84.462 2.492 84.462ZM10.8596 84.63C10.6543 84.63 10.4956 84.5693 10.3836 84.448C10.2716 84.336 10.2156 84.0513 10.2156 83.594C10.2156 83.174 10.2903 82.628 10.4396 81.956C10.589 81.2747 10.7896 80.5187 11.0416 79.688C11.2936 78.8573 11.5783 77.9987 11.8956 77.112C12.213 76.216 12.5443 75.3387 12.8896 74.48C13.2443 73.612 13.585 72.8187 13.9116 72.1C14.033 71.8387 14.159 71.6567 14.2896 71.554C14.4203 71.4513 14.5743 71.4 14.7516 71.4C14.873 71.4 14.9756 71.4373 15.0596 71.512C15.153 71.5773 15.1996 71.6893 15.1996 71.848C15.1996 71.904 15.139 72.086 15.0176 72.394C14.9056 72.702 14.747 73.108 14.5416 73.612C14.3456 74.116 14.1263 74.6807 13.8836 75.306C13.641 75.9313 13.3936 76.5893 13.1416 77.28C12.8896 77.9707 12.6516 78.666 12.4276 79.366C12.2036 80.0567 12.0123 80.7193 11.8536 81.354C11.695 81.9887 11.5876 82.558 11.5316 83.062C11.7556 82.7913 12.0123 82.446 12.3016 82.026C12.591 81.606 12.899 81.1533 13.2256 80.668C13.5523 80.1827 13.8836 79.702 14.2196 79.226C14.5556 78.75 14.887 78.316 15.2136 77.924C15.5403 77.532 15.8436 77.2193 16.1236 76.986C16.413 76.7433 16.665 76.622 16.8796 76.622C17.2343 76.622 17.519 76.734 17.7336 76.958C17.9576 77.1727 18.0696 77.5273 18.0696 78.022C18.0696 78.302 18.0136 78.638 17.9016 79.03C17.799 79.422 17.6776 79.8327 17.5376 80.262C17.3976 80.6913 17.2716 81.102 17.1596 81.494C17.057 81.886 17.0056 82.222 17.0056 82.502C17.0056 82.8847 17.1503 83.076 17.4396 83.076C17.8876 83.076 18.3356 82.978 18.7836 82.782C19.241 82.586 19.675 82.3433 20.0856 82.054C20.4963 81.7553 20.8743 81.4567 21.2196 81.158C21.565 80.85 21.859 80.5887 22.1016 80.374C22.363 80.1407 22.5823 80.024 22.7596 80.024C22.9836 80.024 23.0956 80.1407 23.0956 80.374C23.0956 80.4393 23.0816 80.514 23.0536 80.598C23.0256 80.682 22.951 80.7893 22.8296 80.92C22.6803 81.088 22.4656 81.3073 22.1856 81.578C21.915 81.8487 21.5976 82.138 21.2336 82.446C20.879 82.754 20.4916 83.0433 20.0716 83.314C19.661 83.5847 19.2363 83.8087 18.7976 83.986C18.3683 84.154 17.9483 84.238 17.5376 84.238C16.9776 84.238 16.5436 84.0793 16.2356 83.762C15.937 83.4353 15.7876 82.9873 15.7876 82.418C15.7876 82.0633 15.8436 81.634 15.9556 81.13C16.0676 80.626 16.2076 80.094 16.3756 79.534C16.553 78.9647 16.7303 78.4093 16.9076 77.868C16.609 78.0733 16.2823 78.3813 15.9276 78.792C15.5823 79.1933 15.2183 79.6507 14.8356 80.164C14.453 80.668 14.0703 81.1813 13.6876 81.704C13.3143 82.2267 12.9503 82.712 12.5956 83.16C12.2503 83.5987 11.9283 83.9533 11.6296 84.224C11.331 84.4947 11.0743 84.63 10.8596 84.63ZM22.7549 84.364C22.4003 84.364 22.1063 84.2007 21.8729 83.874C21.6489 83.538 21.5369 83.104 21.5369 82.572C21.5369 82.0773 21.6583 81.5873 21.9009 81.102C22.1529 80.6167 22.4843 80.15 22.8949 79.702C23.3056 79.254 23.7536 78.8433 24.2389 78.47C24.7243 78.0873 25.2096 77.756 25.6949 77.476C26.1896 77.196 26.6423 76.9767 27.0529 76.818C27.4636 76.6593 27.7903 76.58 28.0329 76.58C28.1636 76.58 28.2709 76.608 28.3549 76.664C28.4389 76.7107 28.4809 76.7993 28.4809 76.93C28.4809 77.014 28.4483 77.0933 28.3829 77.168C28.3923 77.168 28.4016 77.168 28.4109 77.168C28.6163 77.168 28.7189 77.2893 28.7189 77.532C28.7189 77.616 28.6863 77.7887 28.6209 78.05C28.5556 78.302 28.4809 78.6193 28.3969 79.002C28.3129 79.3847 28.2383 79.8093 28.1729 80.276C28.1076 80.7333 28.0749 81.2 28.0749 81.676C28.0749 82.0773 28.2289 82.278 28.5369 82.278C28.8823 82.278 29.2323 82.1987 29.5869 82.04C29.9416 81.8813 30.2869 81.69 30.6229 81.466C30.9589 81.2327 31.2669 81.004 31.5469 80.78C31.8269 80.5467 32.0649 80.3507 32.2609 80.192C32.4569 80.0333 32.5969 79.954 32.6809 79.954C32.7556 79.954 32.8209 79.9773 32.8769 80.024C32.9329 80.0707 32.9609 80.1453 32.9609 80.248C32.9609 80.3413 32.8676 80.5093 32.6809 80.752C32.4943 80.9947 32.2469 81.27 31.9389 81.578C31.6309 81.886 31.2856 82.1847 30.9029 82.474C30.5203 82.7633 30.1283 83.0013 29.7269 83.188C29.3256 83.3747 28.9429 83.468 28.5789 83.468C28.2989 83.468 28.0423 83.384 27.8089 83.216C27.5849 83.0387 27.4029 82.74 27.2629 82.32C27.1323 81.9 27.0669 81.3213 27.0669 80.584V80.234C26.6096 80.99 26.1289 81.6807 25.6249 82.306C25.1303 82.9313 24.6356 83.4307 24.1409 83.804C23.6556 84.1773 23.1936 84.364 22.7549 84.364ZM27.7669 77.588C27.7203 77.6067 27.6549 77.6347 27.5709 77.672C27.1416 77.868 26.6936 78.1107 26.2269 78.4C25.7696 78.6893 25.3216 79.0113 24.8829 79.366C24.4536 79.7207 24.0663 80.0893 23.7209 80.472C23.3756 80.8547 23.1003 81.242 22.8949 81.634C22.6896 82.026 22.5869 82.4087 22.5869 82.782C22.5869 82.9033 22.6103 82.9967 22.6569 83.062C22.7129 83.1273 22.8063 83.16 22.9369 83.16C23.1236 83.16 23.3663 83.0433 23.6649 82.81C23.9636 82.5673 24.2903 82.25 24.6449 81.858C25.0089 81.466 25.3729 81.032 25.7369 80.556C26.1009 80.08 26.4463 79.5993 26.7729 79.114C27.1089 78.6287 27.3983 78.1807 27.6409 77.77C27.6783 77.7047 27.7203 77.644 27.7669 77.588ZM42.9821 83.58C42.9727 83.7293 42.9121 83.8507 42.8001 83.944C42.6881 84.0373 42.5574 84.084 42.4081 84.084C42.2401 84.084 42.1001 84.028 41.9881 83.916C41.8761 83.804 41.8201 83.6313 41.8201 83.398C41.8201 82.7913 41.8481 82.1333 41.9041 81.424C41.9601 80.7053 42.0301 79.996 42.1141 79.296C42.1981 78.5867 42.2821 77.9333 42.3661 77.336C42.0581 77.7747 41.7221 78.26 41.3581 78.792C41.0034 79.324 40.6394 79.8513 40.2661 80.374C39.8927 80.8967 39.5287 81.3773 39.1741 81.816C38.8194 82.2453 38.4974 82.5953 38.2081 82.866C37.9187 83.1273 37.6807 83.258 37.4941 83.258C37.1487 83.258 36.8501 83.1227 36.5981 82.852C36.3461 82.572 36.2201 82.222 36.2201 81.802C36.2201 81.634 36.2387 81.4053 36.2761 81.116C36.3134 80.8173 36.3554 80.5047 36.4021 80.178C36.4487 79.8513 36.4907 79.548 36.5281 79.268C36.5654 78.9787 36.5841 78.764 36.5841 78.624C36.5841 78.4933 36.5701 78.3813 36.5421 78.288C36.5234 78.1853 36.4767 78.134 36.4021 78.134C36.2901 78.134 36.1361 78.26 35.9401 78.512C35.7441 78.7547 35.5247 79.0673 35.2821 79.45C35.0487 79.8327 34.8061 80.2387 34.5541 80.668C34.3114 81.0973 34.0827 81.5033 33.8681 81.886C33.6534 82.2593 33.4714 82.5533 33.3221 82.768C33.2007 82.9733 33.0887 83.1227 32.9861 83.216C32.8834 83.3093 32.7574 83.356 32.6081 83.356C32.4307 83.356 32.2674 83.2627 32.1181 83.076C31.9781 82.8893 31.9081 82.6607 31.9081 82.39C31.9081 82.2313 31.9361 81.984 31.9921 81.648C32.0481 81.3027 32.1181 80.9247 32.2021 80.514C32.2954 80.1033 32.3841 79.702 32.4681 79.31C32.5614 78.9087 32.6407 78.568 32.7061 78.288C32.7807 77.9707 32.8741 77.756 32.9861 77.644C33.0981 77.532 33.2194 77.476 33.3501 77.476C33.5274 77.476 33.6674 77.5413 33.7701 77.672C33.8821 77.7933 33.9381 77.9847 33.9381 78.246C33.9381 78.2927 33.9101 78.4187 33.8541 78.624C33.7981 78.82 33.7281 79.0627 33.6441 79.352C33.5694 79.632 33.4854 79.926 33.3921 80.234C33.3081 80.542 33.2381 80.8267 33.1821 81.088C33.3874 80.7427 33.6021 80.3693 33.8261 79.968C34.0594 79.5667 34.2927 79.17 34.5261 78.778C34.7594 78.3767 34.9927 78.0127 35.2261 77.686C35.4594 77.35 35.6881 77.084 35.9121 76.888C36.1361 76.692 36.3507 76.594 36.5561 76.594C36.7987 76.594 37.0227 76.6687 37.2281 76.818C37.4427 76.9673 37.6154 77.168 37.7461 77.42C37.8767 77.672 37.9421 77.952 37.9421 78.26C37.9421 78.4747 37.9047 78.778 37.8301 79.17C37.7554 79.5527 37.6761 79.968 37.5921 80.416C37.5174 80.864 37.4707 81.2887 37.4521 81.69C37.4521 81.7833 37.4801 81.83 37.5361 81.83C37.5827 81.83 37.6387 81.7973 37.7041 81.732C37.9747 81.4333 38.2734 81.074 38.6001 80.654C38.9267 80.2247 39.2581 79.772 39.5941 79.296C39.9394 78.82 40.2801 78.3533 40.6161 77.896C40.9521 77.4293 41.2647 77.0093 41.5541 76.636C41.8527 76.2533 42.1141 75.95 42.3381 75.726C42.5714 75.502 42.7534 75.39 42.8841 75.39C43.1641 75.39 43.3787 75.4693 43.5281 75.628C43.6774 75.7867 43.7521 76.0527 43.7521 76.426C43.7521 76.7247 43.7287 77.112 43.6821 77.588C43.6447 78.064 43.5934 78.582 43.5281 79.142C43.4721 79.702 43.4067 80.2667 43.3321 80.836C43.2667 81.396 43.2014 81.9187 43.1361 82.404C43.0707 82.88 43.0194 83.272 42.9821 83.58ZM47.82 84.308C47.6146 84.308 47.456 84.2473 47.344 84.126C47.2413 84.014 47.19 83.8833 47.19 83.734C47.19 83.6033 47.246 83.482 47.358 83.37C47.4793 83.2487 47.6426 83.1413 47.848 83.048C48.2213 82.852 48.5713 82.656 48.898 82.46C49.234 82.264 49.5046 82.054 49.71 81.83C49.9153 81.606 50.018 81.368 50.018 81.116C50.018 80.9013 49.948 80.738 49.808 80.626C49.668 80.5047 49.4766 80.444 49.234 80.444C49.094 80.444 48.898 80.472 48.646 80.528C48.394 80.5747 48.1186 80.6307 47.82 80.696C47.5306 80.752 47.246 80.808 46.966 80.864C46.686 80.9107 46.448 80.934 46.252 80.934C45.8973 80.934 45.6313 80.85 45.454 80.682C45.2766 80.5047 45.188 80.2667 45.188 79.968C45.188 79.8187 45.2766 79.5947 45.454 79.296C45.6313 78.9973 45.8646 78.666 46.154 78.302C46.4526 77.9287 46.7793 77.5553 47.134 77.182C47.4886 76.8087 47.848 76.4633 48.212 76.146C48.5853 75.8287 48.9306 75.572 49.248 75.376C49.5746 75.18 49.8453 75.082 50.06 75.082C50.2746 75.082 50.438 75.152 50.55 75.292C50.662 75.432 50.718 75.6093 50.718 75.824C50.718 75.992 50.69 76.1367 50.634 76.258C50.578 76.37 50.4613 76.4587 50.284 76.524C50.116 76.5893 49.8546 76.6267 49.5 76.636C49.136 76.9253 48.7486 77.2567 48.338 77.63C47.9366 77.994 47.568 78.372 47.232 78.764C46.9053 79.1467 46.6673 79.5153 46.518 79.87C46.826 79.7673 47.1993 79.6787 47.638 79.604C48.086 79.52 48.5386 79.478 48.996 79.478C49.7146 79.478 50.2466 79.6413 50.592 79.968C50.9466 80.2853 51.124 80.7053 51.124 81.228C51.124 81.564 51.0166 81.914 50.802 82.278C50.5966 82.6327 50.326 82.964 49.99 83.272C49.654 83.58 49.2946 83.8273 48.912 84.014C48.5293 84.21 48.1653 84.308 47.82 84.308ZM66.1147 79.548C65.5733 79.548 65.0273 79.478 64.4767 79.338C63.926 79.1887 63.4267 79.002 62.9787 78.778C62.8293 79.31 62.6893 79.8933 62.5587 80.528C62.428 81.1627 62.3067 81.844 62.1947 82.572C62.092 83.0947 61.9893 83.4353 61.8867 83.594C61.784 83.7527 61.6533 83.832 61.4947 83.832C61.336 83.832 61.21 83.7573 61.1167 83.608C61.0233 83.4493 60.9767 83.1553 60.9767 82.726C60.9767 82.642 61 82.446 61.0467 82.138C61.0933 81.83 61.154 81.452 61.2287 81.004C61.3127 80.5467 61.4013 80.0567 61.4947 79.534C61.588 79.002 61.6813 78.47 61.7747 77.938C61.5507 77.6953 61.4387 77.4667 61.4387 77.252C61.4387 77.1493 61.4667 77.0513 61.5227 76.958C61.5787 76.8553 61.6953 76.804 61.8727 76.804C61.9007 76.804 61.9333 76.8087 61.9707 76.818C62.0733 76.258 62.1573 75.7587 62.2227 75.32C62.2973 74.872 62.3393 74.55 62.3487 74.354C62.3673 74.018 62.4327 73.7847 62.5447 73.654C62.6567 73.514 62.7873 73.444 62.9367 73.444C63.058 73.444 63.156 73.4953 63.2307 73.598C63.3053 73.6913 63.3427 73.9293 63.3427 74.312C63.3427 74.5547 63.324 74.8813 63.2867 75.292C63.744 74.3587 64.22 73.696 64.7147 73.304C65.2187 72.912 65.7787 72.716 66.3947 72.716C66.9547 72.716 67.4353 72.87 67.8367 73.178C68.238 73.4767 68.546 73.9013 68.7607 74.452C68.9753 75.0027 69.0827 75.6513 69.0827 76.398C69.0827 77.4527 68.826 78.2413 68.3127 78.764C67.7993 79.2867 67.0667 79.548 66.1147 79.548ZM63.3427 77.616C63.6973 77.8213 64.094 78.0127 64.5327 78.19C64.9713 78.358 65.424 78.442 65.8907 78.442C66.6467 78.442 67.1973 78.274 67.5427 77.938C67.8973 77.5927 68.0747 77.0373 68.0747 76.272C68.0747 75.3853 67.9347 74.7553 67.6547 74.382C67.3747 74.0087 66.992 73.822 66.5067 73.822C65.956 73.822 65.4053 74.13 64.8547 74.746C64.304 75.3527 63.8 76.3093 63.3427 77.616ZM72.7593 84.14C72.2086 84.14 71.7746 83.93 71.4573 83.51C71.14 83.09 70.9813 82.544 70.9813 81.872C70.9813 81.6293 71.014 81.3727 71.0793 81.102C71.154 80.822 71.2473 80.57 71.3593 80.346C71.294 80.2807 71.2426 80.192 71.2053 80.08C71.168 79.9587 71.1493 79.8093 71.1493 79.632C71.1493 79.0813 71.2426 78.5773 71.4293 78.12C71.616 77.6627 71.8633 77.266 72.1713 76.93C72.4793 76.5847 72.82 76.3187 73.1933 76.132C73.576 75.9453 73.9633 75.852 74.3553 75.852C74.9993 75.852 75.522 76.0853 75.9233 76.552C76.3246 77.0093 76.5253 77.7093 76.5253 78.652C76.5253 79.1467 76.4506 79.6507 76.3013 80.164C76.1613 80.6773 75.9653 81.172 75.7133 81.648C75.4706 82.124 75.186 82.5487 74.8593 82.922C74.542 83.2953 74.2013 83.594 73.8373 83.818C73.4826 84.0327 73.1233 84.14 72.7593 84.14ZM72.2833 79.87C72.3393 79.9447 72.3673 80.0427 72.3673 80.164C72.3673 80.304 72.3393 80.444 72.2833 80.584C72.2366 80.724 72.1853 80.9153 72.1293 81.158C72.0733 81.4007 72.0453 81.746 72.0453 82.194C72.0453 82.642 72.2226 82.866 72.5773 82.866C72.9693 82.866 73.3333 82.712 73.6693 82.404C74.0053 82.0867 74.304 81.6807 74.5653 81.186C74.8266 80.6913 75.0273 80.164 75.1673 79.604C75.3166 79.0347 75.3913 78.498 75.3913 77.994C75.3913 77.6673 75.3306 77.4387 75.2093 77.308C75.088 77.168 74.8686 77.098 74.5513 77.098C74.2246 77.098 73.884 77.21 73.5293 77.434C73.184 77.6487 72.8946 77.9427 72.6613 78.316C72.428 78.6893 72.3113 79.1093 72.3113 79.576C72.3113 79.6787 72.302 79.7767 72.2833 79.87ZM78.542 84.266C78.3926 84.266 78.2666 84.2053 78.164 84.084C78.0613 83.9627 78.01 83.7947 78.01 83.58C78.01 83.4213 78.0426 83.16 78.108 82.796C78.1826 82.4227 78.262 81.9887 78.346 81.494C78.4393 80.9993 78.5186 80.486 78.584 79.954C78.6493 79.4127 78.682 78.8947 78.682 78.4C78.682 78.1573 78.7426 77.98 78.864 77.868C78.9946 77.7467 79.1393 77.686 79.298 77.686C79.4473 77.686 79.5593 77.7793 79.634 77.966C79.7086 78.1527 79.7226 78.526 79.676 79.086C80.1053 78.134 80.5766 77.3687 81.09 76.79C81.6126 76.202 82.1306 75.782 82.644 75.53C83.1573 75.2687 83.6193 75.138 84.03 75.138C84.3006 75.138 84.4966 75.194 84.618 75.306C84.7486 75.4087 84.814 75.5253 84.814 75.656C84.814 75.8333 84.7393 75.9733 84.59 76.076C84.45 76.1693 84.2026 76.2813 83.848 76.412C83.4373 76.5707 83.0593 76.7573 82.714 76.972C82.378 77.1773 82.056 77.448 81.748 77.784C81.4493 78.12 81.1553 78.5493 80.866 79.072C80.5766 79.5853 80.2873 80.22 79.998 80.976C79.7086 81.732 79.4006 82.642 79.074 83.706C79.018 83.9113 78.9433 84.056 78.85 84.14C78.766 84.224 78.6633 84.266 78.542 84.266ZM83.1741 79.52C82.9221 79.5013 82.8054 79.338 82.8241 79.03C82.8334 78.9553 82.8848 78.8667 82.9781 78.764C83.0714 78.652 83.1788 78.5913 83.3001 78.582C83.5894 78.554 83.9441 78.512 84.3641 78.456C84.7934 78.3907 85.2648 78.316 85.7781 78.232C85.8714 77.7747 85.9834 77.294 86.1141 76.79C86.2448 76.286 86.3894 75.796 86.5481 75.32C86.7068 74.8347 86.8748 74.396 87.0521 74.004C87.2294 73.612 87.4161 73.304 87.6121 73.08C87.7148 72.9773 87.8081 72.9073 87.8921 72.87C87.9761 72.8233 88.0508 72.8 88.1161 72.8C88.2468 72.8 88.3494 72.856 88.4241 72.968C88.5081 73.08 88.5501 73.206 88.5501 73.346C88.5501 73.4207 88.5361 73.4953 88.5081 73.57C88.3214 74.0927 88.1208 74.7367 87.9061 75.502C87.6914 76.2673 87.4628 77.1027 87.2201 78.008C88.0788 77.868 88.9374 77.7187 89.7961 77.56C90.6548 77.4013 91.3921 77.2567 92.0081 77.126C92.1854 77.0513 92.3208 77.0653 92.4141 77.168C92.5168 77.2707 92.5681 77.3733 92.5681 77.476C92.5681 77.6067 92.5308 77.7047 92.4561 77.77C92.3908 77.8353 92.3208 77.8913 92.2461 77.938L92.2321 77.952C92.0454 78.0267 91.7654 78.1153 91.3921 78.218C91.0188 78.3113 90.5894 78.414 90.1041 78.526C89.6188 78.6287 89.1008 78.7313 88.5501 78.834C88.0088 78.9367 87.4721 79.03 86.9401 79.114C86.7254 79.9353 86.5061 80.78 86.2821 81.648C86.0674 82.5067 85.8528 83.3513 85.6381 84.182C85.5448 84.518 85.4374 84.728 85.3161 84.812C85.2041 84.9053 85.0828 84.952 84.9521 84.952C84.8028 84.952 84.6721 84.896 84.5601 84.784C84.4574 84.672 84.4434 84.4433 84.5181 84.098L85.5401 79.324C84.9801 79.408 84.4854 79.4687 84.0561 79.506C83.6361 79.5433 83.3421 79.548 83.1741 79.52ZM91.8897 85.246C91.731 85.246 91.605 85.19 91.5117 85.078C91.4183 84.966 91.3717 84.7793 91.3717 84.518C91.3717 84.0513 91.395 83.5707 91.4417 83.076C91.4977 82.572 91.5257 82.1053 91.5257 81.676C91.5257 80.696 91.437 79.8887 91.2597 79.254C91.0917 78.61 90.723 78.176 90.1537 77.952C90.023 77.9053 89.9297 77.854 89.8737 77.798C89.8083 77.742 89.7757 77.6533 89.7757 77.532C89.7757 77.4013 89.827 77.294 89.9297 77.21C90.023 77.126 90.2003 77.084 90.4617 77.084C90.6763 77.084 90.961 77.0933 91.3157 77.112C91.6703 77.1307 92.053 77.1493 92.4637 77.168C92.753 76.132 93.0797 75.2733 93.4437 74.592C93.8077 73.9107 94.2043 73.374 94.6337 72.982C95.0723 72.59 95.5343 72.31 96.0197 72.142C96.5143 71.974 97.0277 71.89 97.5597 71.89C97.793 71.89 97.9423 71.9227 98.0077 71.988C98.073 72.044 98.1057 72.1327 98.1057 72.254C98.1057 72.4033 98.059 72.562 97.9657 72.73C97.8723 72.8887 97.681 72.9913 97.3917 73.038C96.757 73.15 96.1923 73.3553 95.6977 73.654C95.203 73.9527 94.7737 74.3867 94.4097 74.956C94.0457 75.516 93.7423 76.2533 93.4997 77.168C94.3957 77.1493 95.1657 77.1027 95.8097 77.028C96.4537 76.944 96.9903 76.8553 97.4197 76.762C97.8583 76.6593 98.2083 76.5753 98.4697 76.51C98.731 76.4353 98.9317 76.398 99.0717 76.398C99.2303 76.398 99.3283 76.44 99.3657 76.524C99.403 76.608 99.4217 76.6967 99.4217 76.79C99.4217 76.9673 99.2537 77.14 98.9177 77.308C98.5817 77.4667 98.1383 77.6113 97.5877 77.742C97.0463 77.8633 96.449 77.9613 95.7957 78.036C95.1423 78.1107 94.4983 78.148 93.8637 78.148C93.761 78.148 93.6583 78.148 93.5557 78.148C93.4623 78.148 93.3643 78.148 93.2617 78.148C93.243 78.2133 93.229 78.2833 93.2197 78.358C93.1263 78.8993 93.033 79.4733 92.9397 80.08C92.8557 80.6773 92.7763 81.2653 92.7017 81.844C92.6363 82.4133 92.585 82.9313 92.5477 83.398C92.5103 83.8647 92.4917 84.238 92.4917 84.518C92.4917 84.7513 92.4357 84.9287 92.3237 85.05C92.2117 85.1807 92.067 85.246 91.8897 85.246ZM92.2257 78.092C91.955 78.064 91.703 78.0267 91.4697 77.98C91.591 78.12 91.6937 78.2833 91.7777 78.47C91.871 78.6567 91.9503 78.8573 92.0157 79.072C92.081 78.7267 92.151 78.4 92.2257 78.092ZM99.0503 84.14C98.4997 84.14 98.0657 83.93 97.7483 83.51C97.431 83.09 97.2723 82.544 97.2723 81.872C97.2723 81.6293 97.305 81.3727 97.3703 81.102C97.445 80.822 97.5383 80.57 97.6503 80.346C97.585 80.2807 97.5337 80.192 97.4963 80.08C97.459 79.9587 97.4403 79.8093 97.4403 79.632C97.4403 79.0813 97.5337 78.5773 97.7203 78.12C97.907 77.6627 98.1543 77.266 98.4623 76.93C98.7703 76.5847 99.111 76.3187 99.4843 76.132C99.867 75.9453 100.254 75.852 100.646 75.852C101.29 75.852 101.813 76.0853 102.214 76.552C102.616 77.0093 102.816 77.7093 102.816 78.652C102.816 79.1467 102.742 79.6507 102.592 80.164C102.452 80.6773 102.256 81.172 102.004 81.648C101.762 82.124 101.477 82.5487 101.15 82.922C100.833 83.2953 100.492 83.594 100.128 83.818C99.7737 84.0327 99.4143 84.14 99.0503 84.14ZM98.5743 79.87C98.6303 79.9447 98.6583 80.0427 98.6583 80.164C98.6583 80.304 98.6303 80.444 98.5743 80.584C98.5277 80.724 98.4763 80.9153 98.4203 81.158C98.3643 81.4007 98.3363 81.746 98.3363 82.194C98.3363 82.642 98.5137 82.866 98.8683 82.866C99.2603 82.866 99.6243 82.712 99.9603 82.404C100.296 82.0867 100.595 81.6807 100.856 81.186C101.118 80.6913 101.318 80.164 101.458 79.604C101.608 79.0347 101.682 78.498 101.682 77.994C101.682 77.6673 101.622 77.4387 101.5 77.308C101.379 77.168 101.16 77.098 100.842 77.098C100.516 77.098 100.175 77.21 99.8203 77.434C99.475 77.6487 99.1857 77.9427 98.9523 78.316C98.719 78.6893 98.6023 79.1093 98.6023 79.576C98.6023 79.6787 98.593 79.7767 98.5743 79.87ZM107.094 84.56C106.375 84.56 105.811 84.3267 105.4 83.86C104.999 83.384 104.798 82.7213 104.798 81.872C104.798 81.3493 104.868 80.738 105.008 80.038C105.157 79.3287 105.344 78.582 105.568 77.798C105.801 77.0047 106.053 76.2207 106.324 75.446C106.595 74.6713 106.856 73.9527 107.108 73.29C107.369 72.618 107.598 72.058 107.794 71.61C107.906 71.358 108.065 71.232 108.27 71.232C108.55 71.232 108.69 71.4047 108.69 71.75C108.69 71.862 108.639 72.0907 108.536 72.436C108.433 72.7813 108.298 73.2107 108.13 73.724C107.962 74.228 107.78 74.788 107.584 75.404C107.388 76.02 107.187 76.6547 106.982 77.308C106.786 77.952 106.604 78.5913 106.436 79.226C106.268 79.8513 106.133 80.4393 106.03 80.99C105.927 81.5407 105.876 82.012 105.876 82.404C105.876 82.656 105.941 82.8567 106.072 83.006C106.212 83.146 106.399 83.216 106.632 83.216C107.061 83.216 107.491 83.132 107.92 82.964C108.359 82.7867 108.779 82.572 109.18 82.32C109.581 82.0587 109.945 81.802 110.272 81.55C110.608 81.2887 110.893 81.074 111.126 80.906C111.359 80.7287 111.523 80.64 111.616 80.64C111.821 80.64 111.924 80.752 111.924 80.976C111.924 81.0507 111.849 81.1907 111.7 81.396C111.551 81.592 111.35 81.8253 111.098 82.096C110.846 82.3667 110.552 82.6467 110.216 82.936C109.889 83.216 109.544 83.482 109.18 83.734C108.825 83.9767 108.466 84.1727 108.102 84.322C107.747 84.4807 107.411 84.56 107.094 84.56ZM111.923 84.07C111.746 84.07 111.587 84.0047 111.447 83.874C111.307 83.734 111.237 83.5193 111.237 83.23C111.237 83.0247 111.265 82.74 111.321 82.376C111.377 82.0027 111.452 81.5967 111.545 81.158C111.638 80.7193 111.736 80.2853 111.839 79.856C111.951 79.4173 112.063 79.0253 112.175 78.68C112.287 78.3347 112.385 78.078 112.469 77.91C112.544 77.7793 112.614 77.6953 112.679 77.658C112.754 77.6207 112.824 77.602 112.889 77.602C113.02 77.602 113.132 77.644 113.225 77.728C113.328 77.812 113.379 77.9753 113.379 78.218C113.379 78.358 113.351 78.5913 113.295 78.918C113.248 79.2353 113.183 79.6087 113.099 80.038C113.024 80.458 112.94 80.892 112.847 81.34C112.763 81.7787 112.679 82.1987 112.595 82.6C112.511 83.0013 112.446 83.3373 112.399 83.608C112.362 83.7573 112.296 83.874 112.203 83.958C112.119 84.0327 112.026 84.07 111.923 84.07ZM113.295 76.328C113.08 76.328 112.875 76.2627 112.679 76.132C112.492 76.0013 112.399 75.7913 112.399 75.502C112.399 75.2593 112.455 75.0633 112.567 74.914C112.688 74.7647 112.828 74.6573 112.987 74.592C113.155 74.5173 113.3 74.48 113.421 74.48C113.542 74.48 113.678 74.508 113.827 74.564C113.986 74.6107 114.121 74.704 114.233 74.844C114.345 74.9747 114.401 75.1707 114.401 75.432C114.401 75.6093 114.34 75.768 114.219 75.908C114.098 76.0387 113.948 76.1413 113.771 76.216C113.603 76.2907 113.444 76.328 113.295 76.328ZM117.316 84.14C116.765 84.14 116.331 83.93 116.014 83.51C115.697 83.09 115.538 82.544 115.538 81.872C115.538 81.6293 115.571 81.3727 115.636 81.102C115.711 80.822 115.804 80.57 115.916 80.346C115.851 80.2807 115.799 80.192 115.762 80.08C115.725 79.9587 115.706 79.8093 115.706 79.632C115.706 79.0813 115.799 78.5773 115.986 78.12C116.173 77.6627 116.42 77.266 116.728 76.93C117.036 76.5847 117.377 76.3187 117.75 76.132C118.133 75.9453 118.52 75.852 118.912 75.852C119.556 75.852 120.079 76.0853 120.48 76.552C120.881 77.0093 121.082 77.7093 121.082 78.652C121.082 79.1467 121.007 79.6507 120.858 80.164C120.718 80.6773 120.522 81.172 120.27 81.648C120.027 82.124 119.743 82.5487 119.416 82.922C119.099 83.2953 118.758 83.594 118.394 83.818C118.039 84.0327 117.68 84.14 117.316 84.14ZM116.84 79.87C116.896 79.9447 116.924 80.0427 116.924 80.164C116.924 80.304 116.896 80.444 116.84 80.584C116.793 80.724 116.742 80.9153 116.686 81.158C116.63 81.4007 116.602 81.746 116.602 82.194C116.602 82.642 116.779 82.866 117.134 82.866C117.526 82.866 117.89 82.712 118.226 82.404C118.562 82.0867 118.861 81.6807 119.122 81.186C119.383 80.6913 119.584 80.164 119.724 79.604C119.873 79.0347 119.948 78.498 119.948 77.994C119.948 77.6673 119.887 77.4387 119.766 77.308C119.645 77.168 119.425 77.098 119.108 77.098C118.781 77.098 118.441 77.21 118.086 77.434C117.741 77.6487 117.451 77.9427 117.218 78.316C116.985 78.6893 116.868 79.1093 116.868 79.576C116.868 79.6787 116.859 79.7767 116.84 79.87Z" fill="white"/>
<path d="M56.8906 24.7227C56.2422 24.9883 55.6875 25.3945 55.2266 25.9414C54.7656 26.4883 54.5352 27.0391 54.5352 27.5938C54.5352 28.1484 54.6484 28.6328 54.875 29.0469C55.1094 29.4609 55.4141 29.8516 55.7891 30.2188C56.1641 30.5781 56.5742 30.9492 57.0195 31.332C57.4648 31.707 57.9102 32.1055 58.3555 32.5273C58.8086 32.9414 59.2227 33.375 59.5977 33.8281C60.4336 34.8359 60.8516 35.9609 60.8516 37.2031C60.8516 37.9609 60.6914 38.668 60.3711 39.3242C60.0508 39.9727 59.625 40.5234 59.0938 40.9766C58.5703 41.4297 57.9648 41.8203 57.2773 42.1484C55.9336 42.7891 54.4922 43.1094 52.9531 43.1094C52.0469 43.1094 51.2109 42.8867 50.4453 42.4414C50.0703 42.2227 49.7656 41.9258 49.5312 41.5508C49.2969 41.1836 49.1797 40.7578 49.1797 40.2734C49.1797 39.7891 49.3672 39.3906 49.7422 39.0781C50.1172 38.7656 50.5781 38.5977 51.125 38.5742L51.6289 38.5508C51.5977 38.9727 51.582 39.3281 51.582 39.6172C51.582 39.9062 51.582 40.1055 51.582 40.2148C51.5898 40.3242 51.6055 40.4805 51.6289 40.6836C51.6602 40.8867 51.6992 41.0352 51.7461 41.1289C51.8008 41.2305 51.8828 41.3477 51.9922 41.4805C52.1016 41.6211 52.2344 41.7227 52.3906 41.7852C52.8125 41.9492 53.2539 42.0312 53.7148 42.0312C54.1758 42.0312 54.6094 41.9805 55.0156 41.8789C55.4219 41.7773 55.8203 41.625 56.2109 41.4219C56.6016 41.2188 56.9531 40.9766 57.2656 40.6953C57.9609 40.0703 58.3086 39.3164 58.3086 38.4336C58.3086 37.5977 57.8906 36.6914 57.0547 35.7148C56.6328 35.2227 55.9844 34.543 55.1094 33.6758C54.2422 32.8008 53.6211 32.1484 53.2461 31.7188C52.4102 30.75 51.9922 29.8789 51.9922 29.1055C51.9922 28.332 52.1445 27.6289 52.4492 26.9961C52.7617 26.3633 53.1719 25.8242 53.6797 25.3789C54.1875 24.9258 54.7656 24.5312 55.4141 24.1953C56.6953 23.5391 58.0273 23.2109 59.4102 23.2109C60.3477 23.2109 61.2188 23.4531 62.0234 23.9375C62.4375 24.1797 62.7734 24.5352 63.0312 25.0039C63.2891 25.4648 63.418 26.0039 63.418 26.6211C63.418 26.7773 62.6484 27.3047 61.1094 28.2031C59.5703 29.1016 58.5938 29.625 58.1797 29.7734V28.6133C58.2891 28.5508 58.6484 28.375 59.2578 28.0859C60.625 27.4453 61.3086 26.9648 61.3086 26.6445C61.3086 25.0977 60.4922 24.3242 58.8594 24.3242C58.1953 24.3242 57.5391 24.457 56.8906 24.7227Z" fill="url(#paint0_linear_179_297)"/>
<defs>
<linearGradient id="paint0_linear_179_297" x1="46.9412" y1="25.4444" x2="62.7598" y2="46.029" gradientUnits="userSpaceOnUse">
<stop stop-color="#794BDB"/>
<stop offset="1" stop-color="#42BCE2" stop-opacity="0.93"/>
</linearGradient>
</defs>
</svg>
