<svg width="45" height="45" viewBox="0 0 45 45" fill="none" xmlns="http://www.w3.org/2000/svg">
<circle cx="22.5" cy="22.5" r="22.5" fill="#31313E"/>
<circle cx="22.5" cy="23.7" r="13.5" fill="#D9D9D9"/>
<path d="M12.2519 7.72803C9.42202 7.72803 7.12793 10.0221 7.12793 12.852V33.348C7.12793 36.1779 9.42202 38.472 12.2519 38.472H32.7479C35.5778 38.472 37.8719 36.1779 37.8719 33.348V12.852C37.8719 10.0221 35.5778 7.72803 32.7479 7.72803H12.2519ZM13.7788 14.316H19.5891L23.7152 20.1792L28.7219 14.316H30.5519L24.5415 21.3529L31.953 31.884H26.1442L21.3562 25.0816L15.5459 31.884H13.7159L20.5298 23.9078L13.7788 14.316ZM16.581 15.78L26.9077 30.42H29.1508L18.8242 15.78H16.581Z" fill="#31313E"/>
</svg>
