<svg width="68" height="68" viewBox="0 0 68 68" fill="none" xmlns="http://www.w3.org/2000/svg">
<path d="M27.9819 65.6646C39.4591 66.3999 57.0838 65.2587 57.5003 59.8272C57.5003 59.8272 56.6992 61.8842 48.0143 63.5205C43.2182 64.3854 37.6974 64.8784 32.0598 64.8784C27.4422 64.8784 22.9032 64.5469 18.4641 63.9072L18.9719 63.9667C18.9719 63.9646 20.4403 65.1801 27.9819 65.6646ZM40.3749 2.13348C40.3749 2.13348 46.9986 8.75711 34.0956 18.9422C23.7489 27.1129 31.7368 31.773 34.0935 37.0961C28.0542 31.6434 23.6236 26.8515 26.5943 22.3869C30.9591 15.8312 43.0482 12.6544 40.3749 2.13348ZM47.5851 48.8282C59.5424 42.6147 54.0132 36.6414 50.1563 37.4489C49.6272 37.5487 49.1682 37.6762 48.7241 37.8356L48.7878 37.8165C49.0407 37.4616 49.3892 37.1875 49.7951 37.0324L49.8099 37.0281C57.4451 34.3442 63.3164 44.9437 47.3449 49.1427C47.4427 49.0556 47.5234 48.9515 47.5808 48.8346L47.5851 48.8282ZM26.8089 37.213C26.8089 37.213 15.2256 39.9649 22.7098 40.9615C24.7243 41.1272 27.0703 41.2207 29.4376 41.2207C32.4636 41.2207 35.4534 41.0656 38.4008 40.766L38.0311 40.7957C42.8272 40.392 47.6382 39.5292 47.6382 39.5292C46.5098 40.0222 45.5514 40.5429 44.6441 41.1357L44.7227 41.089C32.9608 44.183 10.2382 42.7444 16.7811 39.5802C19.6647 38.0864 23.0774 37.2109 26.6942 37.2109C26.7346 37.2109 26.7749 37.2109 26.8153 37.2109L26.8089 37.213ZM53.4649 56.5824C53.4649 56.5824 55.2691 58.0677 51.4823 59.2131C44.2807 61.3955 21.5071 62.0521 15.1852 59.3002C12.9114 58.31 17.1763 56.9372 18.5151 56.6504C19.1334 56.4931 19.8453 56.4017 20.5763 56.4017C20.6252 56.4017 20.6719 56.4017 20.7208 56.4039H20.7144C18.1836 54.621 4.36682 59.9016 13.6956 61.4146C39.1361 65.5392 60.0631 59.5552 53.4649 56.5824ZM36.9643 32.606C37.6316 33.4071 38.0374 34.4505 38.0374 35.5852C38.0374 37.1131 37.3022 38.471 36.1674 39.3231L36.1547 39.3316C36.1547 39.3316 43.9598 35.3005 40.3749 30.2557C37.0259 25.551 34.4589 23.2135 48.3607 15.1512C48.3607 15.1491 26.5433 20.5976 36.9643 32.606ZM24.1102 44.4444C24.1102 44.4444 21.3796 46.4652 25.5488 46.8987C27.3742 47.1282 29.4843 47.2579 31.6263 47.2579C35.5066 47.2579 39.2869 46.8286 42.9207 46.0147L42.5764 46.0785C43.3074 46.7627 44.1808 47.3067 45.1456 47.6595L45.1987 47.6765C30.1176 52.088 13.3152 48.0207 24.1081 44.4422L24.1102 44.4444ZM25.6381 51.4207C25.6381 51.4207 23.2028 52.8381 27.3721 53.3162C28.8999 53.5436 30.6616 53.6732 32.4551 53.6732C35.3323 53.6732 38.131 53.3396 40.8148 52.7064L40.5683 52.7552C41.5607 53.3609 42.7146 53.9389 43.9194 54.417L44.0767 54.4722C31.5987 59.8187 15.8418 54.1599 25.6402 51.4207H25.6381Z" fill="url(#paint0_linear_5_22)"/>
<defs>
<linearGradient id="paint0_linear_5_22" x1="34.0003" y1="2.13348" x2="34.0003" y2="65.8653" gradientUnits="userSpaceOnUse">
<stop stop-color="#794BDB"/>
<stop offset="1" stop-color="#42BCE2" stop-opacity="0.91"/>
</linearGradient>
</defs>
</svg>
