<svg width="48" height="48" viewBox="0 0 48 48" fill="none" xmlns="http://www.w3.org/2000/svg">
<g clip-path="url(#clip0_67_11)">
<path d="M24.27 0.00601223C23.2768 -0.043441 22.2905 0.195497 21.43 0.694012L5.09999 10.12C4.30321 10.5827 3.64503 11.2506 3.19399 12.054L11.108 16.394C11.4092 15.9104 11.823 15.5069 12.314 15.218L22.216 9.49801C22.7512 9.18926 23.3581 9.02673 23.976 9.02673C24.5938 9.02673 25.2008 9.18926 25.736 9.49801L35.638 15.218C36.0468 15.451 36.4046 15.7639 36.69 16.138L44.532 11.608C44.1019 10.9999 43.5451 10.4923 42.9 10.12L26.582 0.694012C25.8783 0.289031 25.0888 0.0560359 24.278 0.0140122L24.27 0.00601223ZM23.98 9.83001C23.5026 9.82989 23.0335 9.95543 22.62 10.194L12.72 15.906C12.3528 16.1202 12.0417 16.4183 11.812 16.776L15.652 18.886C15.8201 18.6633 16.0308 18.4763 16.272 18.336L22.952 14.48C23.2717 14.2961 23.6341 14.1993 24.003 14.1993C24.3718 14.1993 24.7342 14.2961 25.054 14.48L31.726 18.336C31.9032 18.4448 32.0636 18.5788 32.202 18.734L32.238 18.714L32.234 18.71L35.988 16.55C35.7808 16.2915 35.528 16.0732 35.242 15.906L25.342 10.186C24.9278 9.94996 24.4587 9.82717 23.982 9.83001H23.98ZM44.844 12.128L37.004 16.648C37.2661 17.1493 37.4033 17.7064 37.404 18.272V29.702C37.404 30.956 36.74 32.122 35.644 32.758L25.744 38.478C25.3489 38.7019 24.9143 38.8472 24.464 38.906V47.954C25.2069 47.9008 25.9295 47.6873 26.582 47.328L42.906 37.902C43.6892 37.4501 44.3397 36.8001 44.7922 36.0172C45.2447 35.2344 45.4833 34.3462 45.484 33.442V14.594C45.4799 13.7351 45.2613 12.8909 44.848 12.138L44.844 12.128ZM2.96999 12.604C2.6888 13.2274 2.53447 13.9004 2.51599 14.584V33.444C2.51599 35.28 3.49799 36.978 5.10199 37.902L21.426 47.328C22.1736 47.7535 23.016 47.9845 23.876 48V38.938C23.2902 38.9224 22.7176 38.7608 22.21 38.468L12.312 32.76C11.7776 32.4489 11.3343 32.0028 11.0264 31.4665C10.7186 30.9302 10.5571 30.3224 10.558 29.704V18.272C10.5563 17.8086 10.6453 17.3493 10.82 16.92L2.96999 12.604ZM36.31 17.05L32.53 19.234C32.6815 19.5178 32.7663 19.8325 32.778 20.154V27.866C32.778 28.622 32.378 29.306 31.726 29.68L25.054 33.54C24.8693 33.6408 24.6703 33.7129 24.464 33.754V38.094C24.768 38.04 25.072 37.938 25.344 37.78L35.242 32.062C35.6561 31.8229 35.9999 31.4788 36.2387 31.0645C36.4775 30.6502 36.6028 30.1802 36.602 29.702V18.272C36.5995 17.85 36.4988 17.4344 36.308 17.058L36.31 17.05ZM11.536 17.31C11.4197 17.6174 11.3601 17.9433 11.36 18.272V29.702C11.3592 30.1802 11.4845 30.6502 11.7233 31.0645C11.9621 31.4788 12.3059 31.8229 12.72 32.062L22.62 37.782C23.008 38.006 23.444 38.114 23.874 38.136V33.788C23.5526 33.7773 23.2379 33.6931 22.954 33.542L16.28 29.686C15.9591 29.5031 15.6919 29.239 15.5051 28.9203C15.3184 28.6016 15.2187 28.2394 15.216 27.87V20.164C15.2167 19.903 15.2691 19.6447 15.37 19.404L15.302 19.378L11.536 17.31Z" fill="url(#paint0_linear_67_11)"/>
</g>
<defs>
<linearGradient id="paint0_linear_67_11" x1="24" y1="-0.000366211" x2="24" y2="48" gradientUnits="userSpaceOnUse">
<stop stop-color="#794BDB"/>
<stop offset="1" stop-color="#42BCE2" stop-opacity="0.97"/>
</linearGradient>
<clipPath id="clip0_67_11">
<rect width="48" height="48" fill="white"/>
</clipPath>
</defs>
</svg>
