<svg width="63" height="64" viewBox="0 0 63 64" fill="none" xmlns="http://www.w3.org/2000/svg">
<path d="M59.1137 30.278C58.9522 30.266 58.7652 30.258 58.5762 30.258C57.6233 30.258 56.7118 30.438 55.8731 30.766L55.9243 30.748C55.6782 30.848 55.2845 30.848 55.251 31.166C55.3868 31.298 55.4065 31.516 55.5207 31.7C55.751 32.096 56.0345 32.432 56.3653 32.712L56.3712 32.718C56.7157 32.992 57.0603 33.258 57.4225 33.492C58.0624 33.892 58.7888 34.13 59.4149 34.532C59.7712 34.766 60.1355 35.064 60.4977 35.314C60.6769 35.438 60.793 35.664 61.0234 35.744V35.694C60.9111 35.544 60.8757 35.326 60.7655 35.16C60.6001 34.992 60.4367 34.842 60.2733 34.678C59.785 34.028 59.22 33.472 58.586 33.008L58.5624 32.992C58.0368 32.628 56.885 32.118 56.6685 31.504L56.637 31.468C57.0662 31.406 57.4481 31.314 57.8163 31.19L57.769 31.204C58.3281 31.054 58.84 31.086 59.4169 30.94C59.6767 30.872 59.9405 30.79 60.2044 30.706V30.556C59.909 30.256 59.6885 29.848 59.3834 29.568C58.5782 28.848 57.6903 28.172 56.7551 27.564L56.6665 27.51C56.1507 27.176 55.4951 26.96 54.9517 26.676C54.7549 26.576 54.4261 26.526 54.3119 26.358C54.056 25.988 53.8295 25.564 53.6504 25.116L53.6346 25.072C53.1516 24.12 52.7028 23.1514 52.288 22.166C52.0045 21.4 51.723 20.772 51.406 20.164L51.4513 20.258C49.9039 17.62 47.7481 15.5 45.1749 14.054L45.0903 14.01C44.4819 13.704 43.7751 13.466 43.0329 13.332L42.9837 13.324C42.5722 13.304 42.1627 13.274 41.7532 13.256C41.4658 13.068 41.2177 12.876 40.9854 12.664L40.9913 12.67C40.0562 12.07 37.6366 10.77 36.9475 12.49C36.5045 13.574 37.6051 14.644 37.985 15.194C38.2882 15.56 38.5639 15.97 38.8021 16.404L38.8218 16.444C38.9379 16.734 38.9694 17.032 39.0856 17.334C39.371 18.238 39.6605 18.98 39.9892 19.698L39.938 19.574C40.133 19.972 40.3357 20.31 40.5621 20.63L40.5464 20.606C40.6783 20.788 40.9047 20.874 40.9579 21.174C40.7885 21.536 40.6566 21.956 40.5838 22.394L40.5799 22.422C40.3672 23.086 40.2432 23.852 40.2432 24.646C40.2432 25.888 40.5444 27.058 41.076 28.086L41.0563 28.046C41.3201 28.46 41.9462 29.38 42.7849 29.028C43.5231 28.728 43.3597 27.778 43.5724 26.942C43.6216 26.742 43.5901 26.61 43.6905 26.474V26.512C43.9208 26.982 44.1531 27.43 44.3638 27.9C44.9584 28.77 45.6651 29.51 46.4723 30.12L46.4979 30.138C46.8917 30.438 47.2047 30.958 47.6969 31.142V31.092H47.6595C47.5473 30.968 47.4232 30.858 47.2874 30.764L47.2795 30.76C46.9744 30.456 46.6909 30.128 46.4349 29.782L46.4192 29.76C45.7774 28.88 45.167 27.884 44.6375 26.838L44.5804 26.716C44.3106 26.192 44.0842 25.626 43.8677 25.108C43.7692 24.908 43.7692 24.608 43.6039 24.508C43.3125 24.84 43.0506 25.21 42.8321 25.608L42.8164 25.64C42.5644 26.386 42.399 27.248 42.3557 28.142V28.164C42.2887 28.182 42.3222 28.164 42.2887 28.2C41.7631 28.07 41.582 27.516 41.3851 27.05C41.1173 26.318 40.9618 25.47 40.9618 24.588C40.9618 23.876 41.0622 23.188 41.2512 22.538L41.2394 22.59C41.3555 22.24 41.8477 21.136 41.6509 20.8C41.5485 20.482 41.2236 20.3 41.0425 20.042C40.8279 19.734 40.631 19.384 40.4676 19.014L40.4519 18.974C40.0581 18.04 39.8613 17.004 39.434 16.07C39.1761 15.582 38.9045 15.162 38.5993 14.77L38.6131 14.788C38.2882 14.406 37.989 13.98 37.7291 13.528L37.7075 13.488C37.6267 13.306 37.5106 13.004 37.6405 12.804C37.6641 12.688 37.7547 12.598 37.8709 12.58C38.0874 12.4 38.6977 12.634 38.9104 12.734C39.5345 12.974 40.0719 13.256 40.57 13.588L40.5385 13.568C40.7689 13.732 41.0189 14.05 41.3142 14.132H41.6587C42.1844 14.25 42.779 14.168 43.2711 14.314C44.1748 14.624 44.9564 15.012 45.6789 15.488L45.6376 15.462C47.8111 16.888 49.5515 18.816 50.7288 21.094L50.7681 21.176C50.965 21.56 51.0516 21.914 51.2308 22.314C51.5753 23.138 52.0006 23.972 52.351 24.768C52.6837 25.624 53.0775 26.364 53.546 27.046L53.5224 27.01C53.7685 27.36 54.7568 27.542 55.1998 27.724C55.6664 27.89 56.0405 28.048 56.4027 28.226L56.3299 28.194C56.8949 28.544 57.4461 28.944 57.9777 29.328C58.2474 29.518 59.0684 29.936 59.1176 30.272L59.1137 30.278ZM36.032 44.904C36.032 44.934 36.034 44.968 36.034 45.002C36.034 46.118 35.5438 47.116 34.7681 47.788L34.7622 47.792C33.9117 48.496 32.8151 48.924 31.6201 48.924C31.5275 48.924 31.435 48.922 31.3445 48.916H31.3563C29.9014 48.896 28.5626 48.416 27.466 47.614L27.4857 47.628L28.0685 46.438C28.913 46.918 29.9171 47.216 30.9842 47.258H30.996C31.0491 47.262 31.1102 47.264 31.1732 47.264C31.8268 47.264 32.4351 47.056 32.9332 46.702L32.9234 46.708C33.3742 46.36 33.6617 45.816 33.6617 45.204C33.6617 45.192 33.6617 45.182 33.6617 45.17V45.172C33.6617 44.348 33.0966 43.648 32.067 43.06C31.1121 42.528 29.2064 41.418 29.2064 41.418C28.2653 40.826 27.6491 39.784 27.6491 38.596C27.6491 38.554 27.6491 38.512 27.6511 38.47V38.476C27.6491 38.438 27.6491 38.394 27.6491 38.35C27.6491 37.32 28.096 36.396 28.8028 35.768L28.8067 35.764C29.5588 35.116 30.5412 34.722 31.6142 34.722C31.6831 34.722 31.75 34.724 31.817 34.726H31.8071C31.8248 34.726 31.8465 34.726 31.8681 34.726C33.1262 34.726 34.2976 35.108 35.2741 35.766L35.2505 35.752L34.7268 36.942C33.957 36.59 33.0592 36.378 32.1142 36.368H32.1103C32.063 36.364 32.0099 36.362 31.9548 36.362C31.4035 36.362 30.8956 36.558 30.4979 36.886L30.5018 36.882C30.1297 37.196 29.8935 37.666 29.8915 38.192C29.8915 39.012 30.4664 39.716 31.5295 40.316C32.4962 40.854 34.4492 41.99 34.4492 41.99C35.4099 42.564 36.0458 43.608 36.0458 44.804C36.0458 44.84 36.0458 44.878 36.0439 44.914V44.908L36.032 44.904ZM40.1113 45.966C39.5738 44.876 39.2608 43.592 39.2608 42.234C39.2608 42.02 39.2687 41.808 39.2844 41.6L39.2825 41.628C39.2825 38.1467 40.3239 36.4054 42.4069 36.404C42.458 36.4 42.5191 36.398 42.5821 36.398C43.5172 36.398 44.3382 36.894 44.8048 37.642L44.8107 37.652C45.3442 38.736 45.6573 40.016 45.6573 41.368C45.6573 41.576 45.6494 41.782 45.6356 41.986L45.6376 41.958C45.6376 45.4674 44.5961 47.2234 42.5132 47.226C42.46 47.23 42.399 47.232 42.338 47.232C41.4028 47.232 40.5799 46.736 40.1133 45.988L40.1074 45.978L40.1113 45.966ZM48.2107 49.07L45.7104 47.82C45.9388 47.626 46.1435 47.422 46.3325 47.202L46.3385 47.196C47.3484 45.812 47.9548 44.07 47.9548 42.186C47.9548 41.968 47.9469 41.752 47.9312 41.538L47.9331 41.566C47.9331 36.9927 46.1659 34.7047 42.6313 34.702C42.5525 34.698 42.46 34.696 42.3675 34.696C40.8575 34.696 39.501 35.37 38.5776 36.44L38.5737 36.446C37.5677 37.83 36.9633 39.57 36.9633 41.454C36.9633 41.666 36.9711 41.876 36.9869 42.084L36.9849 42.056C36.9672 42.258 36.9574 42.494 36.9574 42.732C36.9574 44.48 37.4968 46.1 38.4142 47.43L38.3965 47.404C39.2805 48.36 40.5346 48.956 41.9225 48.956C42.0525 48.956 42.1805 48.95 42.3065 48.94L42.2887 48.942C42.3065 48.942 42.3301 48.942 42.3517 48.942C42.964 48.942 43.5566 48.852 44.1177 48.686L44.0744 48.698L47.3346 50.628L48.2206 49.074L48.2107 49.07ZM56.3771 48.732H49.9058V34.912H52.0833V47.034H56.3771V48.732ZM26.0564 38.536C25.4914 42.704 24.1979 46.466 22.3059 49.836L22.3847 49.682C21.6267 51.164 20.1935 52.196 18.5102 52.362L18.4905 52.364C17.9806 52.336 17.5061 52.212 17.075 52.01L17.0986 52.02V50.786C17.3683 50.828 17.6794 50.852 17.9963 50.852C18.014 50.852 18.0318 50.852 18.0515 50.852C18.083 50.854 18.1164 50.854 18.1519 50.854C18.7208 50.854 19.2425 50.644 19.6442 50.294L19.6402 50.296C20.0734 49.934 20.351 49.394 20.3667 48.786C20.2624 47.91 20.0635 47.11 19.778 46.356L19.8017 46.424L17.3073 38.536H19.5457L21.3353 44.434C21.6543 45.266 21.8393 46.23 21.8393 47.236C21.8393 47.238 21.8393 47.24 21.8393 47.24C22.7883 44.716 23.5088 41.772 23.875 38.718L23.8927 38.534L26.0564 38.536ZM16.1733 48.732H13.8935C13.8291 45.0507 13.608 41.3767 13.23 37.71H13.2103L9.74136 48.732H8.00689L4.56158 37.71H4.53795C4.26889 41.378 4.10876 45.052 4.05758 48.732H1.97858C2.11376 43.8187 2.44976 39.2114 2.98658 34.91H5.81567L9.09955 45.068H9.11923L12.4326 34.91H15.1259C15.7218 39.946 16.0729 44.5534 16.1792 48.732H16.1733ZM42.338 15.758C42.334 15.758 42.3281 15.758 42.3222 15.758C42.0879 15.758 41.8615 15.788 41.645 15.844L41.6646 15.84V15.872H41.6981C41.8674 16.128 42.0407 16.35 42.2277 16.558L42.2238 16.554C42.3557 16.822 42.4699 17.088 42.6018 17.354L42.6352 17.316C42.8498 17.144 42.9857 16.88 42.9857 16.584C42.9857 16.548 42.9837 16.514 42.9798 16.478V16.482C42.8813 16.364 42.8675 16.248 42.7829 16.132C42.6845 15.964 42.4738 15.882 42.3399 15.75L42.338 15.758Z" fill="url(#paint0_linear_66_2)"/>
<defs>
<linearGradient id="paint0_linear_66_2" x1="31.501" y1="11.6327" x2="31.501" y2="52.364" gradientUnits="userSpaceOnUse">
<stop stop-color="#794BDB"/>
<stop offset="1" stop-color="#42BCE2" stop-opacity="0.88"/>
</linearGradient>
</defs>
</svg>
