<svg width="46" height="46" viewBox="0 0 46 46" fill="none" xmlns="http://www.w3.org/2000/svg">
<path d="M23.193 45.386C35.4498 45.386 45.386 35.4498 45.386 23.193C45.386 10.9361 35.4498 1 23.193 1C10.9361 1 1 10.9361 1 23.193C1 35.4498 10.9361 45.386 23.193 45.386Z" fill="#31313E"/>
<path fill-rule="evenodd" clip-rule="evenodd" d="M36.6316 14.5617C35.6525 14.9967 34.5988 15.2897 33.4937 15.4219C34.6219 14.7455 35.4883 13.675 35.8957 12.3995C34.8412 13.0261 33.6704 13.4797 32.4268 13.7256C31.4299 12.664 30.0087 12 28.4385 12C25.4213 12 22.9749 14.4464 22.9749 17.4636C22.9749 17.8914 23.0237 18.3086 23.1169 18.7089C18.5757 18.4817 14.5501 16.306 11.8552 13.0003C11.3847 13.8073 11.1158 14.7455 11.1158 15.7468C11.1158 17.642 12.0789 19.3144 13.5462 20.2943C12.6496 20.2659 11.8082 20.02 11.0705 19.6108V19.6791C11.0705 22.3271 12.955 24.5346 15.4529 25.0379C14.9949 25.1622 14.5119 25.2297 14.014 25.2297C13.6616 25.2297 13.319 25.1951 12.9852 25.1311C13.6803 27.3015 15.6988 28.8815 18.0892 28.9259C16.2198 30.3906 13.864 31.2648 11.3039 31.2648C10.8619 31.2648 10.427 31.2391 10 31.1876C12.418 32.7376 15.2896 33.6429 18.3751 33.6429C28.4243 33.6429 33.9198 25.3176 33.9198 18.0982C33.9198 17.8612 33.9154 17.6251 33.9038 17.3917C34.9725 16.6194 35.8992 15.6572 36.6316 14.5617Z" fill="#E2E2E2"/>
</svg>
