<svg width="49" height="49" viewBox="0 0 49 49" fill="none" xmlns="http://www.w3.org/2000/svg">
<g clip-path="url(#clip0_67_13)">
<path d="M36.2146 0H19.934H18.673L17.7816 0.891379L5.45632 13.2168L4.56494 14.1082V15.3692V40.7797C4.56494 45.3122 8.25219 49.0001 12.7854 49.0001H36.2146C40.7479 49.0001 44.4351 45.3122 44.4351 40.7797V8.22052C44.4351 3.68725 40.7478 0 36.2146 0ZM41.3906 40.7796C41.3906 43.6389 39.0733 45.9563 36.2146 45.9563H12.7854C9.92604 45.9563 7.60868 43.6389 7.60868 40.7796V15.3691H15.6207C18.0021 15.3691 19.934 13.438 19.934 11.0557V3.04374H36.2145C39.0732 3.04374 41.3906 5.3611 41.3906 8.22052L41.3906 40.7796Z" fill="url(#paint0_linear_67_13)"/>
<path d="M17.0354 28.4949L19.05 25.5568C19.1803 25.3623 19.2445 25.1673 19.2445 24.9721C19.2445 24.491 18.8676 24.1141 18.3477 24.1141C18.0229 24.1141 17.763 24.2571 17.5552 24.5691L15.9689 26.9092H15.9436L14.3572 24.5691C14.1493 24.2571 13.8894 24.1141 13.5647 24.1141C13.0448 24.1141 12.668 24.491 12.668 24.9721C12.668 25.1673 12.7321 25.3623 12.8623 25.5568L14.8643 28.4949L12.7066 31.6664C12.5769 31.8615 12.5115 32.0565 12.5115 32.2517C12.5115 32.7328 12.8884 33.1097 13.4083 33.1097C13.733 33.1097 13.9936 32.9667 14.2015 32.6546L15.9436 30.0806H15.9689L17.711 32.6546C17.9188 32.9667 18.1794 33.1097 18.5041 33.1097C19.024 33.1097 19.4009 32.7328 19.4009 32.2517C19.4009 32.0565 19.3361 31.8614 19.2057 31.6664L17.0354 28.4949Z" fill="url(#paint1_linear_67_13)"/>
<path d="M27.8511 24.1141C27.2791 24.1141 26.967 24.4262 26.6811 25.1024L24.8355 29.3657H24.7834L22.8983 25.1024C22.5996 24.4261 22.2875 24.1141 21.7156 24.1141C21.0788 24.1141 20.6625 24.5565 20.6625 25.2582V32.1869C20.6625 32.7715 21.0267 33.1098 21.5472 33.1098C22.0403 33.1098 22.4045 32.7715 22.4045 32.1869V27.9229H22.4694L23.8472 31.0943C24.1205 31.7185 24.3417 31.9009 24.7834 31.9009C25.225 31.9009 25.4463 31.7185 25.7195 31.0943L27.084 27.9229H27.1494V32.1869C27.1494 32.7715 27.5003 33.1098 28.0201 33.1098C28.54 33.1098 28.8908 32.7715 28.8908 32.1869V25.2582C28.8908 24.5565 28.4879 24.1141 27.8511 24.1141Z" fill="url(#paint2_linear_67_13)"/>
<path d="M35.7174 31.3289H32.5714C32.5193 31.3289 32.4925 31.3029 32.4925 31.2508V25.1278C32.4925 24.5171 32.0903 24.1141 31.5436 24.1141C30.985 24.1141 30.5828 24.517 30.5828 25.1278V32.0694C30.5828 32.6413 30.9596 33.0316 31.5436 33.0316H35.7173C36.3013 33.0316 36.6782 32.6807 36.6782 32.1736C36.6783 31.6797 36.3014 31.3289 35.7174 31.3289Z" fill="url(#paint3_linear_67_13)"/>
</g>
<defs>
<linearGradient id="paint0_linear_67_13" x1="24.5" y1="0" x2="24.5" y2="49.0001" gradientUnits="userSpaceOnUse">
<stop stop-color="#794BDB"/>
<stop offset="1" stop-color="#42BCE2" stop-opacity="0.92"/>
</linearGradient>
<linearGradient id="paint1_linear_67_13" x1="15.9562" y1="24.1141" x2="15.9562" y2="33.1097" gradientUnits="userSpaceOnUse">
<stop stop-color="#794BDB"/>
<stop offset="1" stop-color="#42BCE2" stop-opacity="0.92"/>
</linearGradient>
<linearGradient id="paint2_linear_67_13" x1="24.7767" y1="24.1141" x2="24.7767" y2="33.1098" gradientUnits="userSpaceOnUse">
<stop stop-color="#794BDB"/>
<stop offset="1" stop-color="#42BCE2" stop-opacity="0.92"/>
</linearGradient>
<linearGradient id="paint3_linear_67_13" x1="33.6305" y1="24.1141" x2="33.6305" y2="33.0316" gradientUnits="userSpaceOnUse">
<stop stop-color="#794BDB"/>
<stop offset="1" stop-color="#42BCE2" stop-opacity="0.92"/>
</linearGradient>
<clipPath id="clip0_67_13">
<rect width="49" height="49" fill="white"/>
</clipPath>
</defs>
</svg>
